<?xml version="1.0" encoding="utf-8"?>
<!-- Generator: Adobe Illustrator 16.0.0, SVG Export Plug-In . SVG Version: 6.00 Build 0)  -->
<!DOCTYPE svg PUBLIC "-//W3C//DTD SVG 1.1//EN" "http://www.w3.org/Graphics/SVG/1.1/DTD/svg11.dtd">
<svg version="1.1" id="Layer_1" xmlns="http://www.w3.org/2000/svg" xmlns:xlink="http://www.w3.org/1999/xlink" x="0px" y="0px"
	 width="50px" height="50px" viewBox="0 0 50 50" enable-background="new 0 0 50 50" xml:space="preserve">
<g>
	<defs>
		<rect id="SVGID_1_" x="-376" width="49.979" height="50"/>
	</defs>
	<clipPath id="SVGID_2_">
		<use xlink:href="#SVGID_1_"  overflow="visible"/>
	</clipPath>
	<g clip-path="url(#SVGID_2_)">
		<path fill="#E51041" d="M-339.498,40.886l-27.388-27.388l-0.558,0.558l-2.886,2.884c-7.561,7.565-7.561,19.828,0,27.389
			c3.784,3.783,8.74,5.672,13.697,5.672c4.956,0,9.913-1.889,13.692-5.672l2.279-2.279l1.162-1.163H-339.498z M-350.146,39.322
			l4.136,5.736c-2.735,2.023-5.973,3.211-9.403,3.441l-0.425-7.16C-353.774,41.219-351.808,40.52-350.146,39.322z M-365.308,24.131
			c-1.202,1.66-1.9,3.627-2.027,5.688l-7.153-0.436c0.23-3.324,1.379-6.594,3.449-9.395L-365.308,24.131z M-372.354,39.211
			l6.337-3.488c0.491,0.895,1.112,1.719,1.845,2.449c0.728,0.73,1.549,1.35,2.435,1.84l-3.5,6.338
			c-1.473-0.809-2.84-1.828-4.061-3.049C-370.52,42.08-371.553,40.68-372.354,39.211z"/>
		<path fill="#FFFFFF" d="M-353.583,11.15c2.194-2.194,5.112-3.405,8.215-3.405c1.898,0,3.725,0.454,5.362,1.308l5.632-5.633
			c-1.176-0.811-2.418-1.478-3.705-2.002C-340.41,0.473-342.886,0-345.367,0c-4.958,0-9.912,1.893-13.696,5.672l-3.845,3.845
			l5.478,5.478l3.845-3.845H-353.583z"/>
		<path fill="#FFFFFF" d="M-344.531,16.595v7.748h9.672c-0.565,1.189-1.335,2.285-2.293,3.243l-3.846,3.845l5.479,5.479l3.845-3.845
			c2.505-2.505,4.18-5.524,5.024-8.721c0.359-1.354,0.57-2.74,0.629-4.131v-3.616h-18.512H-344.531z"/>
	</g>
</g>
</svg>
